<svg width="1224" height="200" viewBox="0 0 1224 200" fill="none" xmlns="http://www.w3.org/2000/svg">
<path d="M200.512 129C201.712 134.85 202.762 137.1 205.162 139.5C209.212 143.25 216.262 145.8 223.312 145.8C234.112 145.8 242.662 139.95 242.662 132.9C242.662 129.15 240.562 126 236.512 123.75C234.262 122.55 231.112 121.5 228.262 120.45L216.562 117.45C202.762 114 195.262 111.15 190.912 107.55C185.662 102.9 182.662 96 182.662 87.6C182.662 67.95 197.512 55.5 220.912 55.5C235.912 55.5 247.312 60.45 254.362 69.45C258.412 75 259.762 79.95 260.212 88.5H240.412C238.612 77.25 233.362 73.05 220.912 73.05C209.512 73.05 202.312 78 202.312 85.65C202.312 89.1 203.812 91.65 206.662 93.45C208.312 94.5 211.012 95.4 213.562 96.15L218.812 97.35L223.912 98.55L229.012 99.75C255.112 106.2 263.212 112.95 263.212 129C263.212 138.15 260.212 145.95 254.212 152.1C247.162 159.15 237.262 162.6 222.862 162.6C205.912 162.6 192.562 156.9 185.812 147.45C182.362 142.05 181.162 137.55 180.712 129H200.512ZM268.548 58.95H287.898V94.05C293.148 86.25 299.598 82.8 310.398 82.8C320.448 82.8 328.548 86.7 332.598 93.75C334.848 97.2 335.598 102 335.598 108.45V159H315.798V116.25C315.798 109.8 315.048 105.45 313.398 103.2C311.148 100.35 307.848 99 303.798 99C294.348 99 287.898 106.05 287.898 116.7V159H268.548V58.95ZM342.979 84.6H362.329V159H342.979V84.6ZM342.979 58.95H362.329V75.6H342.979V58.95ZM414.046 107.55C413.446 100.65 408.946 97.2 400.396 97.2C393.946 97.2 388.996 100.35 388.996 104.4C388.996 106.95 390.496 109.05 393.646 110.55C395.296 111.6 398.146 112.35 400.546 112.95L402.946 113.55L405.646 114L408.046 114.6C428.896 119.4 435.346 124.5 435.346 136.65C435.346 152.25 423.346 161.7 403.096 161.7C387.346 161.7 376.696 157.65 370.996 149.7C368.146 145.65 367.096 142.35 366.946 135.3H386.746C387.496 138.9 388.246 141 390.046 142.8C392.296 145.2 397.546 146.85 402.946 146.85C410.146 146.85 415.246 143.7 415.246 139.05C415.246 136.65 413.596 134.55 410.446 132.9C408.796 131.85 406.096 131.1 403.696 130.5L401.296 130.05L398.596 129.45L396.196 129C375.496 124.2 369.496 119.25 369.496 107.25C369.496 100.8 371.746 94.95 375.796 90.9C381.196 85.5 391.246 82.2 401.596 82.2C414.046 82.2 424.246 85.95 429.046 92.7C431.596 96.3 432.796 99.9 433.546 107.55H414.046ZM440.72 58.95H460.07V94.05C465.32 86.25 471.77 82.8 482.57 82.8C492.62 82.8 500.72 86.7 504.77 93.75C507.02 97.2 507.77 102 507.77 108.45V159H487.97V116.25C487.97 109.8 487.22 105.45 485.57 103.2C483.32 100.35 480.02 99 475.97 99C466.52 99 460.07 106.05 460.07 116.7V159H440.72V58.95ZM515.151 58.95H534.501V112.65L558.801 84.6H583.401L557.001 113.55L584.301 159H560.151L542.601 127.05L534.501 135.75V159H515.151V58.95ZM629.306 150C624.656 157.05 616.106 161.4 606.056 161.4C591.506 161.4 582.506 153.15 582.506 139.35C582.506 131.4 585.656 124.35 591.056 120.75C594.806 117.9 601.556 116.25 612.956 114.6C621.356 113.4 623.156 113.1 625.556 111.9C627.656 110.7 628.706 109.05 628.856 107.1C629.306 102.15 624.506 98.25 617.456 98.25C608.906 98.25 604.256 101.7 603.656 108.6H585.056C585.506 100.65 587.156 96.15 591.806 91.5C597.656 85.65 606.206 82.95 619.256 82.95C631.406 82.95 641.006 87 645.656 93.6C647.456 96.45 648.356 100.5 648.356 105.9V144.3C648.356 146.85 648.806 149.55 649.556 152.1C650.006 153.9 650.606 154.95 652.856 156.6V159H630.656L629.306 150ZM628.556 124.35C621.806 126 618.806 126.75 615.806 127.35C605.606 129.6 602.606 131.85 602.606 137.7C602.606 143.7 606.056 146.7 613.106 146.7C618.656 146.7 624.356 143.7 626.606 139.65C627.956 137.4 628.556 133.95 628.556 129.75V124.35Z" fill="#00F43A"/>
<path d="M705.119 55.95C733.319 55.95 751.919 77.55 751.919 110.1C751.919 141.3 732.719 162.6 704.069 162.6C690.869 162.6 678.719 157.5 669.869 148.5C660.269 138.9 655.919 126.9 655.919 110.1C655.919 93.45 661.019 78.6 670.469 69C679.469 60 690.269 55.95 705.119 55.95ZM704.519 73.8C687.269 73.8 677.069 87.3 677.069 109.5C677.069 130.8 688.019 144.75 704.369 144.75C712.019 144.75 718.469 141.45 723.569 135C728.819 128.55 730.769 120.75 730.769 109.35C730.769 87.45 720.719 73.8 704.519 73.8ZM757.636 84.6H775.936L776.386 96.15C780.736 87 787.186 82.95 800.686 82.2V102C790.336 102.75 787.336 103.05 784.186 105.45C779.236 108.6 776.986 113.25 776.986 120.45V159H757.636V84.6ZM846.009 150C841.359 157.05 832.809 161.4 822.759 161.4C808.209 161.4 799.209 153.15 799.209 139.35C799.209 131.4 802.359 124.35 807.759 120.75C811.509 117.9 818.259 116.25 829.659 114.6C838.059 113.4 839.859 113.1 842.259 111.9C844.359 110.7 845.409 109.05 845.559 107.1C846.009 102.15 841.209 98.25 834.159 98.25C825.609 98.25 820.959 101.7 820.359 108.6H801.759C802.209 100.65 803.859 96.15 808.509 91.5C814.359 85.65 822.909 82.95 835.959 82.95C848.109 82.95 857.709 87 862.359 93.6C864.159 96.45 865.059 100.5 865.059 105.9V144.3C865.059 146.85 865.509 149.55 866.259 152.1C866.709 153.9 867.309 154.95 869.559 156.6V159H847.359L846.009 150ZM845.259 124.35C838.509 126 835.509 126.75 832.509 127.35C822.309 129.6 819.309 131.85 819.309 137.7C819.309 143.7 822.759 146.7 829.809 146.7C835.359 146.7 841.059 143.7 843.309 139.65C844.659 137.4 845.259 133.95 845.259 129.75V124.35ZM941.622 131.7C940.572 141.3 938.472 146.7 932.922 152.25C926.472 158.7 918.972 161.7 908.322 161.7C885.372 161.7 872.622 148.2 872.622 123.45C872.622 110.1 875.922 99.75 882.522 92.7C889.122 85.95 898.422 82.5 909.822 82.5C920.772 82.5 929.022 85.8 935.022 93.45C939.222 98.25 940.722 102.45 941.922 110.7H921.822C919.572 102.45 915.972 98.85 908.922 98.85C899.322 98.85 893.172 107.7 893.172 122.55C893.172 136.95 898.872 145.65 908.472 145.65C913.122 145.65 917.322 143.25 919.572 139.2C920.772 137.55 921.072 135.75 922.122 131.7H941.622ZM946.507 58.95H965.857V159H946.507V58.95ZM1041.72 137.55C1036.92 153.9 1026.12 162.15 1009.32 162.15C998.524 162.15 988.774 158.7 982.324 152.85C975.574 146.7 971.974 136.05 971.974 123.45C971.974 109.05 975.424 99.6 983.224 91.95C989.674 85.65 997.774 82.5 1007.82 82.5C1030.47 82.5 1043.22 96.9 1042.77 123.15V127.95H991.924C993.574 140.1 999.124 146.1 1008.42 146.1C1015.17 146.1 1019.52 143.25 1021.77 137.55H1041.72ZM1022.67 114.6C1021.32 104.55 1015.77 99.15 1007.52 99.15C999.124 99.15 994.024 104.55 992.374 114.6H1022.67Z" fill="white"/>
<rect x="342" y="58" width="21" height="21" fill="#2B2B2C"/>
<path d="M347.951 76.0851C345.126 74.6626 343.978 72.6263 343.249 69.8782C343.089 69.274 343.425 68.6927 344.049 68.7335V68.7335M347.951 76.0851C348.607 74.3264 350.205 72.8285 351.852 71.8717M347.951 76.0851C350.316 77.2762 353.316 77.3114 355.721 76.149M351.852 71.8717C351.11 71.0164 349.704 70.5024 348.443 70.0086M351.852 71.8717C353.414 71.044 354.206 70.691 355.623 70.0681M351.852 71.8717C353.852 73.0028 354.457 74.0353 355.721 76.149M348.443 70.0086C349.15 68.9674 349.706 68.2906 350.41 67.6977M348.443 70.0086C347.076 69.4735 345.542 68.8312 344.049 68.7335M355.623 70.0681C354.778 69.115 354.152 68.3736 353.328 67.6977M355.623 70.0681L359.623 69.0133M350.41 67.6977V67.6977C351.23 67.0065 352.474 67.0058 353.308 67.6813C353.314 67.6867 353.321 67.6922 353.328 67.6977M350.41 67.6977C349.713 67.0151 349.088 66.499 348.443 66.0771M344.049 68.7335C343.828 67.3835 343.655 66.5246 343.906 65.4004C344.034 64.8317 344.677 64.4284 345.23 64.6142V64.6142M353.328 67.6977C353.843 66.9334 354.403 66.4322 355.164 65.9401M359.623 69.0133V69.0133C360.284 68.8653 360.9 69.5491 360.723 70.2028C360.015 72.8172 358.377 74.8656 355.721 76.149M359.623 69.0133C359.903 67.5152 360.058 66.6308 359.631 65.3022C359.481 64.8351 358.948 64.3705 358.475 64.5037V64.5037M348.443 66.0771C347.505 65.4644 346.527 65.0506 345.23 64.6142M348.443 66.0771C349.487 64.6115 350.148 63.7895 351.525 62.8231M355.164 65.9401C354.275 64.551 353.645 63.7876 352.197 62.8231M355.164 65.9401C356.01 65.393 356.937 64.9377 358.475 64.5037M345.23 64.6142C345.601 63.1888 345.962 62.2961 346.694 61.2966C347.14 60.6894 347.964 60.5093 348.639 60.842V60.842M351.525 62.8231V62.8231C351.722 62.6844 351.984 62.6815 352.186 62.8152C352.19 62.8179 352.193 62.8205 352.197 62.8231M351.525 62.8231C350.483 61.9025 349.717 61.3728 348.639 60.842M352.197 62.8231C353.072 61.8213 353.768 61.2659 354.713 60.842M358.475 64.5037C357.991 63.279 357.676 62.4661 357.106 61.5736C356.597 60.7766 355.575 60.4548 354.713 60.842V60.842M348.639 60.842C349.35 59.8987 349.924 59.0132 350.674 58.4812C351.369 57.9877 352.351 57.9632 353.03 58.4792C353.718 59.002 354.144 59.8732 354.713 60.842" stroke="#00F43A"/>
</svg>
